<svg preserveAspectRatio="none" width="100%" height="100%" overflow="visible" style="display: block;" viewBox="0 0 20 9" fill="none" xmlns="http://www.w3.org/2000/svg">
<g id="CaretDown" clip-path="url(#clip0_103_37)">
<path id="Vector" d="M16.6922 2.44254L10.4422 8.69253C10.3841 8.75065 10.3152 8.79674 10.2393 8.8282C10.1634 8.85965 10.0821 8.87584 9.99998 8.87584C9.91785 8.87584 9.83652 8.85965 9.76064 8.8282C9.68477 8.79674 9.61584 8.75065 9.55779 8.69253L3.30779 2.44254C3.19052 2.32526 3.12463 2.1662 3.12463 2.00035C3.12463 1.83449 3.19052 1.67543 3.30779 1.55816C3.42507 1.44088 3.58413 1.375 3.74998 1.375C3.91583 1.375 4.07489 1.44088 4.19217 1.55816L9.99998 7.36675L15.8078 1.55816C15.8659 1.50009 15.9348 1.45403 16.0107 1.4226C16.0865 1.39117 16.1679 1.375 16.25 1.375C16.3321 1.375 16.4134 1.39117 16.4893 1.4226C16.5652 1.45403 16.6341 1.50009 16.6922 1.55816C16.7502 1.61623 16.7963 1.68517 16.8277 1.76104C16.8592 1.83691 16.8753 1.91823 16.8753 2.00035C16.8753 2.08247 16.8592 2.16379 16.8277 2.23966C16.7963 2.31553 16.7502 2.38447 16.6922 2.44254Z" fill="var(--fill-0, #797878)"/>
</g>
<defs>
<clipPath id="clip0_103_37">
<rect width="20" height="9" fill="white"/>
</clipPath>
</defs>
</svg>
