<svg preserveAspectRatio="none" width="100%" height="100%" overflow="visible" style="display: block;" viewBox="0 0 18 18" fill="none" xmlns="http://www.w3.org/2000/svg">
<g id="PaperPlaneTilt">
<path id="Vector" d="M16.2703 3.11766C16.2703 3.11766 16.2703 3.12469 16.2703 3.1282L12.1781 16.624C12.1162 16.8432 11.9887 17.0382 11.8127 17.1829C11.6368 17.3275 11.4208 17.4149 11.1937 17.4333C11.1614 17.4361 11.1291 17.4375 11.0967 17.4375C10.8839 17.4382 10.6754 17.3779 10.4958 17.2639C10.3161 17.1499 10.1728 16.9869 10.0828 16.7941L7.52344 11.5418C7.49783 11.4892 7.48928 11.4298 7.49899 11.3721C7.50869 11.3144 7.53616 11.2611 7.57758 11.2198L11.6501 7.14727C11.7511 7.04092 11.8066 6.89931 11.8047 6.75263C11.8029 6.60595 11.7438 6.46581 11.64 6.36208C11.5363 6.25836 11.3962 6.19926 11.2495 6.19738C11.1028 6.1955 10.9612 6.25099 10.8548 6.35203L6.78023 10.4245C6.73887 10.4659 6.68561 10.4934 6.62788 10.5031C6.57016 10.5128 6.51084 10.5043 6.4582 10.4787L1.20094 7.92C0.995358 7.82137 0.8246 7.6626 0.711293 7.46473C0.597986 7.26687 0.547479 7.03924 0.566465 6.81201C0.585451 6.58479 0.673034 6.3687 0.817607 6.19238C0.96218 6.01606 1.15692 5.88783 1.37602 5.82469L14.8718 1.7325H14.8823C15.0745 1.67852 15.2776 1.67662 15.4707 1.72702C15.6638 1.77741 15.84 1.87828 15.9813 2.01927C16.1226 2.16026 16.2238 2.33629 16.2746 2.52931C16.3254 2.72234 16.3239 2.9254 16.2703 3.11766Z" fill="var(--fill-0, white)"/>
</g>
</svg>
