<svg preserveAspectRatio="none" width="100%" height="100%" overflow="visible" style="display: block;" viewBox="0 0 38 22" fill="none" xmlns="http://www.w3.org/2000/svg">
<g id="ToggleRight">
<g clip-path="url(#clip0_103_33)">
<rect width="38" height="22" rx="11" fill="var(--fill-0, #E2E2E2)"/>
<path id="Vector" d="M26.5 -0.25H11.5C8.51631 -0.25 5.65483 0.935264 3.54505 3.04505C1.43526 5.15483 0.25 8.01631 0.25 11C0.25 13.9837 1.43526 16.8452 3.54505 18.955C5.65483 21.0647 8.51631 22.25 11.5 22.25H26.5C29.4837 22.25 32.3452 21.0647 34.455 18.955C36.5647 16.8452 37.75 13.9837 37.75 11C37.75 8.01631 36.5647 5.15483 34.455 3.04505C32.3452 0.935264 29.4837 -0.25 26.5 -0.25ZM26.5 19.75H11.5C9.17936 19.75 6.95376 18.8281 5.31282 17.1872C3.67187 15.5462 2.75 13.3206 2.75 11C2.75 8.67936 3.67187 6.45376 5.31282 4.81282C6.95376 3.17187 9.17936 2.25 11.5 2.25H26.5C28.8206 2.25 31.0462 3.17187 32.6872 4.81282C34.3281 6.45376 35.25 8.67936 35.25 11C35.25 13.3206 34.3281 15.5462 32.6872 17.1872C31.0462 18.8281 28.8206 19.75 26.5 19.75ZM26.5 4.75C25.2639 4.75 24.0555 5.11656 23.0277 5.80332C21.9999 6.49007 21.1988 7.46619 20.7258 8.60823C20.2527 9.75027 20.1289 11.0069 20.3701 12.2193C20.6112 13.4317 21.2065 14.5453 22.0806 15.4194C22.9547 16.2935 24.0683 16.8888 25.2807 17.1299C26.4931 17.3711 27.7497 17.2473 28.8918 16.7742C30.0338 16.3012 31.0099 15.5001 31.6967 14.4723C32.3834 13.4445 32.75 12.2361 32.75 11C32.75 9.3424 32.0915 7.75269 30.9194 6.58058C29.7473 5.40848 28.1576 4.75 26.5 4.75ZM26.5 14.75C25.7583 14.75 25.0333 14.5301 24.4166 14.118C23.7999 13.706 23.3193 13.1203 23.0355 12.4351C22.7516 11.7498 22.6774 10.9958 22.8221 10.2684C22.9667 9.54098 23.3239 8.8728 23.8483 8.34835C24.3728 7.8239 25.041 7.46675 25.7684 7.32205C26.4958 7.17736 27.2498 7.25162 27.9351 7.53545C28.6203 7.81928 29.206 8.29993 29.618 8.91661C30.0301 9.5333 30.25 10.2583 30.25 11C30.25 11.9946 29.8549 12.9484 29.1517 13.6517C28.4484 14.3549 27.4946 14.75 26.5 14.75Z" fill="var(--fill-0, #ACAAAA)"/>
<rect id="Rectangle 10" x="22" y="7" width="9" height="8" rx="4" fill="var(--fill-0, #ACAAAA)"/>
</g>
</g>
<defs>
<clipPath id="clip0_103_33">
<rect width="38" height="22" rx="11" fill="white"/>
</clipPath>
</defs>
</svg>
